# xmcd
# 
# Track frame offsets:
#     150
#     18882
#     37212
#     57755
#     74260
#     95477
#     117262
#     133992
#     154170
#     172912
#     191707
#     208725
#     227770
#     249542
#     264380
#     278192
#     294757
#     306110
#     320907
#     334667
# 
# Disc length: 4676
# 
# Revision: 5
# Processed by: cddbd v1.5.2PL0 Copyright (c) Steve Scherf et al.
# Submitted via: BonkEnc v1.0.5
# 
DISCID=2a124214
DTITLE=Raimundo Fagner - O Essencial de Fagner
DYEAR=2001
DGENRE=Blues
TTITLE0=Revelação
TTITLE1=Espumas ao Vento
TTITLE2=À sombra de um Vulcão
TTITLE3=Mucuripe
TTITLE4=Retrovisor
TTITLE5=Lua do Leblon
TTITLE6=Doan da minha cabeça
TTITLE7=Ansiedade
TTITLE8=Borbulhas de Amor
TTITLE9=Deslizes
TTITLE10=Terral
TTITLE11=Cabecinha no ombro
TTITLE12=Romance no Deserto
TTITLE13=Você endoideceu meu coração
TTITLE14=Sabiá
TTITLE15=Bateu Saudade
TTITLE16=Estrada de canindé
TTITLE17=Asa Branca
TTITLE18=Oração de São Francisco
TTITLE19=Foi Deus
EXTD=BMG Brasil
EXTT0=
EXTT1=
EXTT2=
EXTT3=
EXTT4=
EXTT5=
EXTT6=
EXTT7=
EXTT8=
EXTT9=
EXTT10=
EXTT11=
EXTT12=
EXTT13=
EXTT14=
EXTT15=
EXTT16=
EXTT17=
EXTT18=
EXTT19=
PLAYORDER=
